<?xml version="1.0" standalone="no"?>
<!DOCTYPE svg PUBLIC "-//W3C//DTD SVG 20010904//EN"
 "http://www.w3.org/TR/2001/REC-SVG-20010904/DTD/svg10.dtd">
<svg version="1.0" xmlns="http://www.w3.org/2000/svg"
 width="162.000000pt" height="141.000000pt" viewBox="0 0 162.000000 141.000000"
 preserveAspectRatio="xMidYMid meet">

<g transform="translate(0.000000,141.000000) scale(0.100000,-0.100000)"
fill="#000000" stroke="none">
<path d="M715 1395 c-324 -71 -545 -343 -545 -669 0 -184 65 -341 195 -471
140 -140 265 -195 455 -203 205 -7 353 47 499 182 138 129 211 299 211 491 0
431 -401 761 -815 670z m315 -41 c54 -16 157 -64 188 -87 9 -7 52 -48 97 -92
128 -128 185 -265 185 -450 0 -110 -18 -185 -69 -290 -74 -151 -216 -274 -381
-329 -74 -25 -100 -29 -200 -29 -102 0 -124 3 -201 30 -205 71 -354 223 -425
433 -27 78 -27 291 -1 370 49 146 153 287 267 360 70 45 180 89 247 100 78 12
226 4 293 -16z"/>
<path d="M784 1349 c-225 -28 -401 -153 -498 -351 -180 -371 44 -811 451 -885
156 -29 321 4 457 91 116 74 227 230 262 367 33 125 19 291 -33 407 -33 73
-122 193 -170 229 -21 15 -40 31 -43 34 -3 3 -36 22 -75 42 -107 55 -240 80
-351 66z m238 -40 c188 -64 332 -198 395 -366 l12 -33 -579 0 -579 0 18 43
c39 89 68 133 131 197 121 122 256 179 432 180 85 0 122 -5 170 -21z m-646
-460 c10 -17 -13 -36 -27 -22 -12 12 -4 33 11 33 5 0 12 -5 16 -11z m152 -14
c29 -24 35 -25 175 -25 l144 0 -4 -72 c-5 -89 -8 -98 -28 -98 -11 0 -15 11
-15 40 0 43 -12 50 -41 24 -20 -18 -39 -11 -39 16 0 20 19 30 56 30 15 0 24 6
24 15 0 11 -12 15 -50 15 l-49 0 -3 -67 c-2 -55 -6 -68 -20 -71 -13 -2 -18 3
-18 18 0 12 -4 18 -11 15 -35 -22 -98 36 -65 60 9 7 16 20 16 29 0 24 -41 21
-47 -4 -4 -14 -14 -20 -34 -20 -16 0 -29 -4 -29 -10 0 -5 10 -10 23 -10 32 0
60 -23 55 -45 -4 -24 -46 -40 -82 -31 -37 9 -32 26 7 26 49 0 54 13 10 25 -30
8 -39 16 -41 37 -3 21 3 28 25 36 l28 10 -37 1 -37 1 -3 -67 c-2 -53 -6 -68
-18 -68 -12 0 -16 15 -18 68 -3 65 -18 89 -29 47 -4 -15 -14 -20 -40 -20 -20
0 -32 -4 -28 -10 3 -5 19 -10 35 -10 36 0 56 -30 40 -60 -6 -11 -18 -20 -26
-20 -11 0 -13 -6 -9 -20 9 -27 -9 -25 -50 6 -43 33 -38 59 11 50 47 -9 50 9 4
23 -56 17 -53 59 5 74 13 3 9 5 -12 6 -22 1 -33 6 -33 16 0 12 14 15 64 15 55
0 69 4 92 25 15 14 37 25 50 25 12 0 36 -11 52 -25z m547 -6 c-6 -18 2 -19
174 -19 154 0 181 -2 181 -15 0 -8 -4 -15 -10 -15 -5 0 -10 -30 -12 -67 -2
-55 -6 -68 -20 -71 -15 -3 -18 4 -18 33 0 31 -3 36 -17 30 -33 -13 -48 -11
-45 8 3 19 -9 22 -25 6 -9 -9 -8 -18 4 -36 24 -37 2 -52 -26 -17 -28 36 -27
70 4 90 21 14 31 15 51 5 34 -15 54 -14 54 4 0 12 -15 15 -75 15 l-75 0 0 -70
c0 -56 -3 -70 -15 -70 -8 0 -15 7 -15 15 0 8 -9 15 -21 15 -50 0 -81 41 -53
71 19 21 11 39 -17 39 -17 0 -19 -7 -19 -70 0 -55 -3 -70 -15 -70 -11 0 -15
16 -17 67 -2 42 -8 68 -15 71 -10 3 -13 -15 -13 -67 0 -56 -3 -71 -15 -71 -10
0 -15 10 -15 33 0 20 -8 39 -21 50 -20 17 -20 17 -14 -16 11 -59 -43 -89 -85
-47 -26 26 -16 48 11 24 15 -13 22 -14 33 -5 17 14 10 41 -10 41 -19 0 -18 16
2 24 26 10 10 31 -20 28 -19 -3 -27 0 -24 9 13 40 84 35 94 -6 7 -27 18 -32
30 -14 4 7 -1 16 -10 21 -20 11 -12 28 15 28 15 0 19 5 15 18 -5 14 1 18 34
18 35 1 40 -1 35 -17z m351 -296 c-18 -73 -106 -206 -178 -267 -59 -51 -153
-101 -218 -117 -30 -7 -59 -16 -64 -21 -6 -4 -53 -8 -106 -8 -174 0 -327 64
-447 188 -57 59 -72 83 -145 235 -8 16 23 17 578 17 l586 0 -6 -27z"/>
<path d="M450 820 c0 -5 14 -10 31 -10 17 0 28 4 24 10 -3 6 -17 10 -31 10
-13 0 -24 -4 -24 -10z"/>
<path d="M630 757 c0 -13 -5 -28 -11 -34 -14 -14 5 -27 26 -19 21 8 20 76 0
76 -9 0 -15 -9 -15 -23z"/>
<path d="M1154 745 c-12 -39 -2 -54 22 -34 16 13 15 60 -1 66 -6 2 -15 -13
-21 -32z"/>
</g>
</svg>
