<?xml version="1.0" standalone="no"?>
<!DOCTYPE svg PUBLIC "-//W3C//DTD SVG 20010904//EN"
 "http://www.w3.org/TR/2001/REC-SVG-20010904/DTD/svg10.dtd">
<svg version="1.0" xmlns="http://www.w3.org/2000/svg"
 width="27.000000pt" height="32.000000pt" viewBox="0 0 27.000000 32.000000"
 preserveAspectRatio="xMidYMid meet">

<g transform="translate(0.000000,32.000000) scale(0.100000,-0.100000)"
fill="#000000" stroke="none">
<path d="M85 269 c-4 -6 -5 -13 -2 -16 7 -7 27 6 27 18 0 12 -17 12 -25 -2z"/>
<path d="M120 276 c0 -3 9 -10 20 -16 11 -6 20 -8 20 -6 0 3 -9 10 -20 16 -11
6 -20 8 -20 6z"/>
<path d="M60 241 c0 -5 -3 -16 -6 -25 -3 -9 -2 -16 4 -16 13 0 23 38 11 46 -5
3 -9 1 -9 -5z"/>
<path d="M37 165 c8 -54 36 -108 68 -129 36 -23 84 -17 104 13 l16 25 -29 -19
c-27 -18 -29 -18 -59 -1 -41 22 -71 64 -70 96 1 14 -1 19 -4 11 -4 -10 -10 -5
-19 15 -13 29 -13 29 -7 -11z"/>
<path d="M143 188 c-23 -30 -26 -42 -5 -24 26 23 52 15 53 -16 0 -13 3 -17 6
-10 3 7 2 24 -1 37 -7 27 -37 34 -53 13z"/>
<path d="M91 153 c-2 -34 29 -58 44 -33 3 6 -1 7 -9 4 -11 -4 -19 2 -25 17 -5
13 -10 19 -10 12z"/>
</g>
</svg>
