<?xml version="1.0" standalone="no"?>
<!DOCTYPE svg PUBLIC "-//W3C//DTD SVG 20010904//EN"
 "http://www.w3.org/TR/2001/REC-SVG-20010904/DTD/svg10.dtd">
<svg version="1.0" xmlns="http://www.w3.org/2000/svg"
 width="32.000000pt" height="32.000000pt" viewBox="0 0 32.000000 32.000000"
 preserveAspectRatio="xMidYMid meet">

<g transform="translate(0.000000,32.000000) scale(0.100000,-0.100000)"
fill="#000000" stroke="none">
<path d="M53 275 c0 -14 3 -25 8 -25 5 0 8 11 7 25 -3 33 -15 33 -15 0z"/>
<path d="M253 270 c6 -10 15 -16 19 -14 14 9 9 22 -11 27 -17 4 -18 2 -8 -13z"/>
<path d="M150 230 c0 -5 5 -10 10 -10 6 0 10 5 10 10 0 6 -4 10 -10 10 -5 0
-10 -4 -10 -10z"/>
<path d="M250 187 c0 -14 5 -29 10 -32 7 -4 8 3 4 22 -9 38 -14 42 -14 10z"/>
<path d="M231 133 c7 -10 14 -19 15 -21 1 -1 7 4 14 13 11 13 10 14 -4 9 -9
-3 -16 -1 -16 5 0 6 -5 11 -11 11 -8 0 -7 -6 2 -17z"/>
<path d="M56 116 c3 -7 11 -13 19 -13 22 0 18 14 -4 20 -13 3 -18 0 -15 -7z"/>
<path d="M272 99 c-7 -12 -11 -24 -8 -27 3 -3 6 0 6 7 0 7 4 10 9 7 5 -3 11 3
14 14 7 26 -5 26 -21 -1z"/>
<path d="M37 104 c-11 -11 -8 -26 3 -19 6 3 10 1 10 -6 0 -7 3 -10 6 -6 3 3 2
13 -3 22 -5 8 -12 12 -16 9z"/>
<path d="M135 80 c-3 -5 1 -10 10 -10 9 0 13 5 10 10 -3 6 -8 10 -10 10 -2 0
-7 -4 -10 -10z"/>
<path d="M190 80 c-9 -6 -10 -10 -3 -10 6 0 15 5 18 10 8 12 4 12 -15 0z"/>
<path d="M95 69 c-10 -15 4 -61 15 -54 6 4 5 14 -3 26 -10 16 -9 21 3 29 9 6
10 10 3 10 -6 0 -15 -5 -18 -11z"/>
<path d="M203 50 c-18 -11 -33 -22 -33 -25 0 -8 58 23 65 35 9 14 5 13 -32
-10z"/>
</g>
</svg>
